<svg xmlns="http://www.w3.org/2000/svg" xmlns:xlink="http://www.w3.org/1999/xlink" viewBox="0 0 182.254 28" overflow="visible">
  <g>
    <path d="M 9.757 7.808 L 11.553 1.102 C 11.625 0.839 11.57 0.557 11.404 0.341 C 11.238 0.124 10.98 -0.002 10.707 0 L 2.966 0 C 2.571 0 2.225 0.264 2.121 0.646 L 0.031 8.444 C -0.041 8.707 0.014 8.989 0.18 9.205 C 0.346 9.422 0.604 9.548 0.877 9.546 L 7.649 9.546 C 8.228 9.546 8.647 10.097 8.494 10.647 L 4.134 26.898 C 4.062 27.161 4.117 27.443 4.283 27.659 C 4.449 27.876 4.707 28.002 4.98 28 L 12.711 28 C 13.106 28 13.453 27.736 13.556 27.354 L 18.201 10.011 C 18.274 9.748 18.219 9.466 18.053 9.249 C 17.887 9.033 17.629 8.906 17.356 8.908 L 10.583 8.908 C 10.311 8.908 10.055 8.782 9.889 8.566 C 9.724 8.351 9.668 8.07 9.739 7.808 Z" fill="rgb(0,17,31)"></path>
    <g>
      <defs>
        <linearGradient id="logoGradient" x1="1" x2="0" y1="0.9553174915009106" y2="0.04468250849908939">
          <stop offset="0" stop-color="rgb(0,75,141)" stop-opacity="1"></stop>
          <stop offset="1" stop-color="rgb(99,221,255)" stop-opacity="1"></stop>
        </linearGradient>
      </defs>
      <path d="M 9.757 7.808 L 11.553 1.102 C 11.625 0.839 11.57 0.557 11.404 0.341 C 11.238 0.124 10.98 -0.002 10.707 0 L 2.966 0 C 2.571 0 2.225 0.264 2.121 0.646 L 0.031 8.444 C -0.041 8.707 0.014 8.989 0.18 9.205 C 0.346 9.422 0.604 9.548 0.877 9.546 L 7.649 9.546 C 8.228 9.546 8.647 10.097 8.494 10.647 L 4.134 26.898 C 4.062 27.161 4.117 27.443 4.283 27.659 C 4.449 27.876 4.707 28.002 4.98 28 L 12.711 28 C 13.106 28 13.453 27.736 13.556 27.354 L 18.201 10.011 C 18.274 9.748 18.219 9.466 18.053 9.249 C 17.887 9.033 17.629 8.906 17.356 8.908 L 10.583 8.908 C 10.311 8.908 10.055 8.782 9.889 8.566 C 9.724 8.351 9.668 8.07 9.739 7.808 Z" fill="url(#logoGradient)"></path>
    </g>
    <path d="M 36.545 3.242 L 36.545 6.348 L 32.813 6.348 L 32.813 3.242 Z M 32.813 7.745 L 36.545 7.745 L 36.545 22.96 L 32.813 22.96 L 32.813 7.744 Z M 48.211 14.697 C 48.211 12.74 48.021 11.496 47.651 10.973 C 47.27 10.451 46.548 10.195 45.466 10.195 C 44.383 10.195 43.5 10.508 42.911 11.135 C 42.541 11.525 42.293 12.075 42.151 12.759 L 42.151 22.96 L 38.419 22.96 L 38.419 7.744 L 42.151 7.744 L 42.151 8.941 C 42.155 9.007 42.138 9.074 42.103 9.131 L 41.344 10.242 L 41.449 10.28 C 41.647 10.005 41.876 9.729 42.131 9.435 C 43.225 8.21 44.686 7.602 46.52 7.602 C 46.7 7.602 46.89 7.602 47.08 7.611 C 48.961 7.745 50.243 8.418 50.918 9.635 C 51.592 10.84 51.934 12.513 51.934 14.64 L 51.934 22.95 L 48.212 22.95 L 48.212 14.687 L 48.212 14.697 Z M 60.479 23.074 C 57.915 23.074 56.081 22.741 54.999 22.076 C 53.906 21.411 53.365 20.025 53.365 17.917 L 56.956 17.917 C 56.956 19.247 57.278 20.025 57.934 20.282 C 58.589 20.528 59.483 20.652 60.622 20.652 C 61.61 20.652 62.369 20.566 62.901 20.386 C 63.424 20.215 63.689 19.683 63.689 18.799 C 63.689 17.831 63.3 17.252 62.512 17.062 C 61.733 16.872 60.65 16.7 59.273 16.539 C 57.593 16.349 56.195 15.96 55.066 15.362 C 53.935 14.773 53.375 13.614 53.375 11.895 C 53.375 10.289 53.916 9.169 54.999 8.552 C 56.081 7.935 57.763 7.62 60.043 7.62 C 62.692 7.62 64.563 7.963 65.646 8.637 C 66.728 9.311 67.27 10.66 67.27 12.674 L 63.69 12.674 C 63.69 11.392 63.367 10.631 62.712 10.394 C 62.056 10.157 61.135 10.042 59.948 10.042 C 58.951 10.042 58.21 10.128 57.726 10.29 C 57.242 10.451 57.004 11.012 57.004 11.953 C 57.004 12.835 57.422 13.367 58.267 13.566 C 59.112 13.766 60.204 13.947 61.553 14.109 C 63.196 14.288 64.565 14.649 65.657 15.181 C 66.749 15.713 67.3 16.834 67.3 18.543 C 67.3 20.253 66.796 21.459 65.799 22.096 C 64.802 22.732 63.025 23.055 60.49 23.055 L 60.48 23.074 Z M 75.013 22.95 C 73.255 22.95 72.068 22.656 71.451 22.077 C 70.833 21.488 70.52 20.481 70.52 19.047 L 70.52 10.509 L 68.07 10.509 L 68.07 7.763 L 68.687 7.763 C 69.038 7.763 69.36 7.697 69.646 7.573 C 69.94 7.451 70.187 7.26 70.387 7.032 C 70.596 6.794 70.747 6.519 70.862 6.187 C 70.976 5.855 71.032 5.493 71.032 5.104 L 71.032 2.654 L 74.775 2.654 L 74.775 5.104 C 74.775 5.912 74.595 6.5 74.233 6.889 C 73.873 7.279 73.378 7.488 72.752 7.526 L 72.752 7.773 L 79.381 7.773 L 79.381 10.518 L 74.252 10.518 L 74.252 18.268 C 74.252 19 74.423 19.474 74.765 19.702 C 75.106 19.93 75.582 20.044 76.2 20.044 C 76.968 20.044 78.042 20.044 79.41 20.035 L 79.41 22.989 L 75.012 22.989 L 75.012 22.95 Z M 91.823 20.585 L 91.557 20.509 C 91.178 21.07 90.845 21.507 90.56 21.802 C 90.256 22.109 89.899 22.36 89.506 22.542 C 89.039 22.759 88.543 22.909 88.034 22.988 C 87.464 23.084 86.837 23.131 86.144 23.131 C 85.613 23.131 85.082 23.09 84.557 23.008 C 84.028 22.929 83.508 22.792 83.009 22.6 C 82.54 22.416 82.106 22.152 81.727 21.821 C 81.357 21.497 81.062 21.07 80.843 20.548 C 80.625 20.035 80.521 19.331 80.521 18.449 C 80.521 17.689 80.626 17.071 80.825 16.596 C 81.029 16.129 81.319 15.703 81.679 15.342 C 82.058 14.972 82.507 14.682 83 14.488 C 83.539 14.274 84.099 14.118 84.671 14.023 C 85.255 13.926 85.846 13.875 86.439 13.871 L 90.978 13.871 L 90.978 13.063 C 90.978 12.114 90.845 11.421 90.589 10.983 C 90.332 10.546 89.981 10.28 89.534 10.185 C 89.088 10.091 88.423 10.034 87.521 10.034 C 86.733 10.034 86.105 10.081 85.631 10.185 C 85.17 10.278 84.767 10.552 84.51 10.945 C 84.234 11.344 84.092 11.981 84.082 12.844 L 80.569 12.844 C 80.598 11.562 80.845 10.574 81.31 9.891 C 81.785 9.207 82.336 8.713 82.981 8.418 C 83.62 8.126 84.294 7.915 84.985 7.792 C 85.679 7.669 86.562 7.602 87.664 7.602 C 89.507 7.602 90.846 7.753 91.701 8.068 C 92.556 8.371 93.268 8.922 93.847 9.701 C 94.426 10.48 94.712 11.677 94.712 13.272 L 94.712 22.941 L 91.055 22.941 L 91.055 22.029 C 91.055 21.907 91.074 21.773 91.122 21.63 C 91.159 21.497 91.226 21.374 91.302 21.27 L 91.787 20.567 L 91.824 20.585 Z M 87.008 20.699 C 87.482 20.699 87.93 20.661 88.366 20.595 C 88.791 20.533 89.207 20.415 89.601 20.244 C 89.99 20.082 90.303 19.883 90.551 19.636 C 90.798 19.389 90.94 19.133 90.988 18.847 L 91.073 15.969 L 86.913 15.969 C 86.552 15.969 86.22 15.998 85.907 16.055 C 85.611 16.107 85.329 16.22 85.08 16.388 C 84.828 16.566 84.633 16.813 84.52 17.1 C 84.387 17.413 84.31 17.822 84.31 18.325 C 84.31 18.924 84.387 19.379 84.538 19.693 C 84.69 20.006 84.89 20.234 85.146 20.366 C 85.403 20.5 85.697 20.585 86.02 20.624 C 86.343 20.661 86.676 20.681 87.008 20.681 L 87.008 20.7 Z M 103.572 23.026 C 100.932 23.026 99.023 22.589 97.855 21.706 C 96.686 20.822 96.106 18.914 96.106 15.97 L 99.868 15.97 C 99.868 17.973 100.191 19.151 100.846 19.512 C 101.492 19.873 102.394 20.053 103.554 20.053 C 104.712 20.053 105.585 19.92 106.25 19.645 C 106.915 19.37 107.238 18.657 107.238 17.517 C 107.238 16.301 106.811 15.522 105.966 15.162 C 105.111 14.811 103.904 14.516 102.337 14.297 C 100.048 13.861 98.434 13.291 97.513 12.579 C 96.591 11.867 96.126 10.603 96.126 8.78 C 96.126 6.233 96.734 4.572 97.94 3.793 C 99.146 3.014 101.007 2.625 103.515 2.625 C 106.023 2.625 107.913 3.071 109.119 3.973 C 110.316 4.875 110.924 6.747 110.924 9.596 L 107.162 9.596 C 107.162 7.601 106.821 6.443 106.146 6.101 C 105.472 5.759 104.579 5.597 103.477 5.597 C 102.376 5.597 101.416 5.722 100.751 5.968 C 100.087 6.215 99.754 6.984 99.754 8.276 C 99.754 9.463 100.201 10.214 101.083 10.537 C 101.967 10.85 103.163 11.126 104.665 11.353 C 107.029 11.781 108.672 12.342 109.574 13.044 C 110.477 13.738 110.924 15.029 110.924 16.91 C 110.924 19.341 110.344 20.966 109.176 21.782 C 108.007 22.599 106.146 23.017 103.572 23.017 Z M 120.439 22.95 L 115.425 22.95 L 112.158 7.753 L 116.023 7.753 L 117.904 18.99 C 117.923 19.085 117.933 19.18 117.942 19.284 L 117.97 19.579 L 117.97 20.775 L 118.227 20.775 L 118.227 19.579 C 118.255 19.484 118.275 19.389 118.283 19.284 C 118.293 19.179 118.312 19.085 118.332 19 L 121.067 7.753 L 124.828 7.753 L 127.535 19 C 127.554 19.094 127.572 19.19 127.582 19.284 C 127.592 19.38 127.611 19.484 127.621 19.569 L 127.621 20.738 L 127.877 20.738 L 127.877 19.569 C 127.877 19.484 127.896 19.389 127.905 19.284 C 127.912 19.189 127.924 19.094 127.943 19 L 129.767 7.735 L 133.613 7.735 L 130.365 22.931 L 125.388 22.931 L 123.156 13.006 C 123.126 12.914 123.107 12.818 123.099 12.722 C 123.09 12.623 123.081 12.525 123.071 12.427 L 123.033 10.642 L 122.786 10.642 L 122.748 12.427 C 122.748 12.513 122.728 12.607 122.71 12.712 C 122.691 12.816 122.672 12.912 122.663 12.996 L 120.459 22.941 Z M 138.924 3.242 L 138.924 6.348 L 135.191 6.348 L 135.191 3.242 Z M 135.191 7.745 L 138.924 7.745 L 138.924 22.96 L 135.191 22.96 L 135.191 7.744 Z M 147.312 22.95 C 145.555 22.95 144.368 22.656 143.751 22.077 C 143.133 21.488 142.82 20.481 142.82 19.047 L 142.82 10.509 L 140.369 10.509 L 140.369 7.763 L 140.987 7.763 C 141.338 7.763 141.662 7.697 141.946 7.573 C 142.241 7.451 142.488 7.26 142.687 7.032 C 142.896 6.794 143.048 6.519 143.162 6.187 C 143.276 5.855 143.333 5.493 143.333 5.104 L 143.333 2.654 L 147.075 2.654 L 147.075 5.104 C 147.075 5.912 146.895 6.5 146.534 6.889 C 146.173 7.279 145.679 7.488 145.052 7.526 L 145.052 7.773 L 151.681 7.773 L 151.681 10.518 L 146.553 10.518 L 146.553 18.268 C 146.553 19 146.723 19.474 147.066 19.702 C 147.408 19.93 147.882 20.044 148.5 20.044 C 149.269 20.044 150.342 20.044 151.71 20.035 L 151.71 22.989 L 147.312 22.989 Z M 160.123 23.093 C 157.502 23.093 155.64 22.608 154.52 21.64 C 153.399 20.671 152.838 18.581 152.838 15.39 C 152.838 12.198 153.399 10.128 154.52 9.121 C 155.64 8.115 157.511 7.612 160.123 7.612 C 162.735 7.612 164.521 8.086 165.461 9.026 C 166.401 9.967 166.943 11.648 167.057 14.06 L 163.457 14.06 C 163.41 12.37 163.162 11.296 162.735 10.86 C 162.308 10.422 161.434 10.195 160.123 10.195 C 158.812 10.195 157.92 10.451 157.349 10.965 C 156.789 11.476 156.504 12.949 156.504 15.381 C 156.504 17.812 156.789 19.284 157.359 19.778 C 157.929 20.272 158.85 20.519 160.123 20.519 C 161.395 20.519 162.298 20.31 162.735 19.892 C 163.172 19.474 163.41 18.401 163.457 16.681 L 167.057 16.681 C 166.933 19.122 166.401 20.794 165.461 21.706 C 164.511 22.618 162.735 23.074 160.123 23.074 Z M 178.54 14.554 C 178.54 12.464 178.331 11.22 177.914 10.812 C 177.496 10.404 176.774 10.195 175.748 10.195 C 174.788 10.195 173.99 10.508 173.335 11.135 C 172.851 11.608 172.531 12.224 172.423 12.892 L 172.423 22.96 L 168.69 22.96 L 168.69 2.634 L 172.423 2.634 L 172.423 9.046 C 172.42 9.117 172.404 9.188 172.376 9.254 L 171.616 10.232 L 171.759 10.299 C 172.053 9.844 172.401 9.427 172.794 9.055 C 173.829 8.068 175.14 7.583 176.717 7.583 C 176.954 7.583 177.201 7.592 177.457 7.62 C 179.215 7.763 180.459 8.362 181.181 9.416 C 181.903 10.47 182.254 12.122 182.254 14.393 L 182.254 22.959 L 178.531 22.959 L 178.531 14.554 Z" fill="#073b4c"></path>
  </g>
</svg>
